<?xml version="1.0" encoding="UTF-8" standalone="no"?>
<!DOCTYPE svg PUBLIC "-//W3C//DTD SVG 1.1//EN" "http://www.w3.org/Graphics/SVG/1.1/DTD/svg11.dtd">
<svg width="100%" height="100%" viewBox="0 0 478 392" version="1.1" xmlns="http://www.w3.org/2000/svg" xmlns:xlink="http://www.w3.org/1999/xlink" xml:space="preserve" xmlns:serif="http://www.serif.com/" style="fill-rule:evenodd;clip-rule:evenodd;stroke-linejoin:round;stroke-miterlimit:2;">
    <g transform="matrix(1,0,0,1,-798.741,-127.003)">
        <g id="Bold-L" transform="matrix(0.264078,0,0,0.264078,932.261,188.085)">
            <path d="M800.513,895.9C784.218,927.037 775,962.45 775,1000C775,1016.5 776.78,1032.59 780.158,1048.08L755.93,1054.57L761.107,1073.89L785.29,1067.41C801.254,1118.24 834.786,1161.32 878.756,1189.53L866.34,1211.03L883.66,1221.03L896.054,1199.57C927.153,1215.81 962.512,1225 1000,1225C1016.7,1225 1032.98,1223.18 1048.65,1219.72L1055.05,1243.6L1074.36,1238.42L1067.96,1214.54C1118.76,1198.44 1161.78,1164.78 1189.88,1120.7L1211.51,1133.19L1221.51,1115.87L1199.87,1103.37C1215.92,1072.41 1225,1037.26 1225,1000C1225,983.183 1223.15,966.794 1219.64,951.026L1243.72,944.576C1247.83,962.55 1250,981.26 1250,1000.47C1250,1138.45 1137.98,1250.47 1000,1250.47C862.021,1250.47 750,1138.45 750,1000.47C750,958.225 760.502,918.411 779.037,883.501L800.513,895.9ZM1043.98,1202.31C1029.81,1205.38 1015.09,1207 1000,1207C965.79,1207 933.507,1198.68 905.064,1183.96L996.589,1025.43L1043.98,1202.31ZM1174.27,1111.69C1148.56,1151.7 1109.45,1182.3 1063.3,1197.12L1015.91,1020.26L1174.27,1111.69ZM887.767,1173.92C847.864,1148.1 817.392,1108.93 802.699,1062.75L979.269,1015.44L887.767,1173.92ZM1202.24,955.691C1205.36,969.968 1207,984.793 1207,1000C1207,1033.98 1198.79,1066.06 1184.26,1094.36L1025.91,1002.94L1202.24,955.691ZM974.092,996.116L797.571,1043.41C794.577,1029.41 793.002,1014.89 793.002,1000C793.002,965.728 801.349,933.39 816.119,904.91L974.092,996.116ZM984.092,978.796L826.175,887.622C851.934,847.881 890.948,817.514 936.935,802.801L984.092,978.796ZM956.257,797.641C970.36,794.602 984.995,793.002 1000,793.002C1034.04,793.002 1066.17,801.237 1094.52,815.822L1003.41,973.619L956.257,797.641ZM1301,887.274C1283.84,823.23 1241.94,768.625 1184.52,735.473L1059.52,951.979L1301,887.274ZM932.269,785.39C881.634,801.377 838.712,834.804 810.566,878.611L789.115,866.225C820.595,816.906 868.898,779.344 925.909,761.653L932.269,785.39ZM951.592,780.23L945.234,756.501C962.862,752.555 981.19,750.473 1000,750.473C1041.79,750.473 1081.19,760.747 1115.83,778.906L1103.53,800.214C1072.53,784.105 1037.32,775 1000,775C983.384,775 967.186,776.805 951.592,780.23Z"/>
        </g>
        <g id="Bold-M" transform="matrix(0.194192,0,0,0.194192,987.965,98.134)">
            <path d="M800.513,895.9C784.218,927.037 775,962.45 775,1000C775,1016.5 776.78,1032.59 780.158,1048.08L755.93,1054.57L761.107,1073.89L785.29,1067.41C801.254,1118.24 834.786,1161.32 878.756,1189.53L866.34,1211.03L883.66,1221.03L896.054,1199.57C927.153,1215.81 962.512,1225 1000,1225C1016.7,1225 1032.98,1223.18 1048.65,1219.72L1055.05,1243.6L1074.36,1238.42L1067.96,1214.54C1118.76,1198.44 1161.78,1164.78 1189.88,1120.7L1211.51,1133.19L1221.51,1115.87L1199.87,1103.37C1215.92,1072.41 1225,1037.26 1225,1000C1225,983.183 1223.15,966.794 1219.64,951.026L1243.72,944.576C1247.83,962.55 1250,981.26 1250,1000.47C1250,1138.45 1137.98,1250.47 1000,1250.47C862.021,1250.47 750,1138.45 750,1000.47C750,958.225 760.502,918.411 779.037,883.501L800.513,895.9ZM1043.98,1202.31C1029.81,1205.38 1015.09,1207 1000,1207C965.79,1207 933.507,1198.68 905.064,1183.96L996.589,1025.43L1043.98,1202.31ZM1174.27,1111.69C1148.56,1151.7 1109.45,1182.3 1063.3,1197.12L1015.91,1020.26L1174.27,1111.69ZM887.767,1173.92C847.864,1148.1 817.392,1108.93 802.699,1062.75L979.269,1015.44L887.767,1173.92ZM1202.24,955.691C1205.36,969.968 1207,984.793 1207,1000C1207,1033.98 1198.79,1066.06 1184.26,1094.36L1025.91,1002.94L1202.24,955.691ZM974.092,996.116L797.571,1043.41C794.577,1029.41 793.002,1014.89 793.002,1000C793.002,965.728 801.349,933.39 816.119,904.91L974.092,996.116ZM984.092,978.796L826.175,887.622C851.934,847.881 890.948,817.514 936.935,802.801L984.092,978.796ZM956.257,797.641C970.36,794.602 984.995,793.002 1000,793.002C1034.04,793.002 1066.17,801.237 1094.52,815.822L1003.41,973.619L956.257,797.641ZM1301,887.274C1283.84,823.23 1241.94,768.625 1184.52,735.473L1059.52,951.979L1301,887.274ZM932.269,785.39C881.634,801.377 838.712,834.804 810.566,878.611L789.115,866.225C820.595,816.906 868.898,779.344 925.909,761.653L932.269,785.39ZM951.592,780.23L945.234,756.501C962.862,752.555 981.19,750.473 1000,750.473C1041.79,750.473 1081.19,760.747 1115.83,778.906L1103.53,800.214C1072.53,784.105 1037.32,775 1000,775C983.384,775 967.186,776.805 951.592,780.23Z"/>
        </g>
        <g id="Bold-S" transform="matrix(0.157282,0,0,0.157282,1025.15,12.6178)">
            <path d="M800.513,895.9C784.218,927.037 775,962.45 775,1000C775,1016.5 776.78,1032.59 780.158,1048.08L755.93,1054.57L761.107,1073.89L785.29,1067.41C801.254,1118.24 834.786,1161.32 878.756,1189.53L866.34,1211.03L883.66,1221.03L896.054,1199.57C927.153,1215.81 962.512,1225 1000,1225C1016.7,1225 1032.98,1223.18 1048.65,1219.72L1055.05,1243.6L1074.36,1238.42L1067.96,1214.54C1118.76,1198.44 1161.78,1164.78 1189.88,1120.7L1211.51,1133.19L1221.51,1115.87L1199.87,1103.37C1215.92,1072.41 1225,1037.26 1225,1000C1225,983.183 1223.15,966.794 1219.64,951.026L1243.72,944.576C1247.83,962.55 1250,981.26 1250,1000.47C1250,1138.45 1137.98,1250.47 1000,1250.47C862.021,1250.47 750,1138.45 750,1000.47C750,958.225 760.502,918.411 779.037,883.501L800.513,895.9ZM1043.98,1202.31C1029.81,1205.38 1015.09,1207 1000,1207C965.79,1207 933.507,1198.68 905.064,1183.96L996.589,1025.43L1043.98,1202.31ZM1174.27,1111.69C1148.56,1151.7 1109.45,1182.3 1063.3,1197.12L1015.91,1020.26L1174.27,1111.69ZM887.767,1173.92C847.864,1148.1 817.392,1108.93 802.699,1062.75L979.269,1015.44L887.767,1173.92ZM1202.24,955.691C1205.36,969.968 1207,984.793 1207,1000C1207,1033.98 1198.79,1066.06 1184.26,1094.36L1025.91,1002.94L1202.24,955.691ZM974.092,996.116L797.571,1043.41C794.577,1029.41 793.002,1014.89 793.002,1000C793.002,965.728 801.349,933.39 816.119,904.91L974.092,996.116ZM984.092,978.796L826.175,887.622C851.934,847.881 890.948,817.514 936.935,802.801L984.092,978.796ZM956.257,797.641C970.36,794.602 984.995,793.002 1000,793.002C1034.04,793.002 1066.17,801.237 1094.52,815.822L1003.41,973.619L956.257,797.641ZM1301,887.274C1283.84,823.23 1241.94,768.625 1184.52,735.473L1059.52,951.979L1301,887.274ZM932.269,785.39C881.634,801.377 838.712,834.804 810.566,878.611L789.115,866.225C820.595,816.906 868.898,779.344 925.909,761.653L932.269,785.39ZM951.592,780.23L945.234,756.501C962.862,752.555 981.19,750.473 1000,750.473C1041.79,750.473 1081.19,760.747 1115.83,778.906L1103.53,800.214C1072.53,784.105 1037.32,775 1000,775C983.384,775 967.186,776.805 951.592,780.23Z"/>
        </g>
        <g id="Light-L" transform="matrix(0.236893,0,0,0.236893,621.071,198.397)">
            <path d="M800.513,895.9C784.218,927.037 775,962.45 775,1000C775,1016.5 776.78,1032.59 780.158,1048.08L755.93,1054.57L761.107,1073.89L785.29,1067.41C801.254,1118.24 834.786,1161.32 878.756,1189.53L866.34,1211.03L883.66,1221.03L896.054,1199.57C927.153,1215.81 962.512,1225 1000,1225C1016.7,1225 1032.98,1223.18 1048.65,1219.72L1055.05,1243.6L1074.36,1238.42L1067.96,1214.54C1118.76,1198.44 1161.78,1164.78 1189.88,1120.7L1211.51,1133.19L1221.51,1115.87L1199.87,1103.37C1215.92,1072.41 1225,1037.26 1225,1000C1225,983.183 1223.15,966.794 1219.64,951.026L1243.72,944.576C1247.83,962.55 1250,981.26 1250,1000.47C1250,1138.45 1137.98,1250.47 1000,1250.47C862.021,1250.47 750,1138.45 750,1000.47C750,958.225 760.502,918.411 779.037,883.501L800.513,895.9ZM1043.98,1202.31C1029.81,1205.38 1015.09,1207 1000,1207C965.79,1207 933.507,1198.68 905.064,1183.96L996.589,1025.43L1043.98,1202.31ZM1174.27,1111.69C1148.56,1151.7 1109.45,1182.3 1063.3,1197.12L1015.91,1020.26L1174.27,1111.69ZM887.767,1173.92C847.864,1148.1 817.392,1108.93 802.699,1062.75L979.269,1015.44L887.767,1173.92ZM1202.24,955.691C1205.36,969.968 1207,984.793 1207,1000C1207,1033.98 1198.79,1066.06 1184.26,1094.36L1025.91,1002.94L1202.24,955.691ZM974.092,996.116L797.571,1043.41C794.577,1029.41 793.002,1014.89 793.002,1000C793.002,965.728 801.349,933.39 816.119,904.91L974.092,996.116ZM984.092,978.796L826.175,887.622C851.934,847.881 890.948,817.514 936.935,802.801L984.092,978.796ZM956.257,797.641C970.36,794.602 984.995,793.002 1000,793.002C1034.04,793.002 1066.17,801.237 1094.52,815.822L1003.41,973.619L956.257,797.641ZM1301,887.274C1283.84,823.23 1241.94,768.625 1184.52,735.473L1059.52,951.979L1301,887.274ZM932.269,785.39C881.634,801.377 838.712,834.804 810.566,878.611L789.115,866.225C820.595,816.906 868.898,779.344 925.909,761.653L932.269,785.39ZM951.592,780.23L945.234,756.501C962.862,752.555 981.19,750.473 1000,750.473C1041.79,750.473 1081.19,760.747 1115.83,778.906L1103.53,800.214C1072.53,784.105 1037.32,775 1000,775C983.384,775 967.186,776.805 951.592,780.23Z"/>
        </g>
        <g id="Light-M" transform="matrix(0.184466,0,0,0.184466,660.479,115.941)">
            <path d="M800.513,895.9C784.218,927.037 775,962.45 775,1000C775,1016.5 776.78,1032.59 780.158,1048.08L755.93,1054.57L761.107,1073.89L785.29,1067.41C801.254,1118.24 834.786,1161.32 878.756,1189.53L866.34,1211.03L883.66,1221.03L896.054,1199.57C927.153,1215.81 962.512,1225 1000,1225C1016.7,1225 1032.98,1223.18 1048.65,1219.72L1055.05,1243.6L1074.36,1238.42L1067.96,1214.54C1118.76,1198.44 1161.78,1164.78 1189.88,1120.7L1211.51,1133.19L1221.51,1115.87L1199.87,1103.37C1215.92,1072.41 1225,1037.26 1225,1000C1225,983.183 1223.15,966.794 1219.64,951.026L1243.72,944.576C1247.83,962.55 1250,981.26 1250,1000.47C1250,1138.45 1137.98,1250.47 1000,1250.47C862.021,1250.47 750,1138.45 750,1000.47C750,958.225 760.502,918.411 779.037,883.501L800.513,895.9ZM1043.98,1202.31C1029.81,1205.38 1015.09,1207 1000,1207C965.79,1207 933.507,1198.68 905.064,1183.96L996.589,1025.43L1043.98,1202.31ZM1174.27,1111.69C1148.56,1151.7 1109.45,1182.3 1063.3,1197.12L1015.91,1020.26L1174.27,1111.69ZM887.767,1173.92C847.864,1148.1 817.392,1108.93 802.699,1062.75L979.269,1015.44L887.767,1173.92ZM1202.24,955.691C1205.36,969.968 1207,984.793 1207,1000C1207,1033.98 1198.79,1066.06 1184.26,1094.36L1025.91,1002.94L1202.24,955.691ZM974.092,996.116L797.571,1043.41C794.577,1029.41 793.002,1014.89 793.002,1000C793.002,965.728 801.349,933.39 816.119,904.91L974.092,996.116ZM984.092,978.796L826.175,887.622C851.934,847.881 890.948,817.514 936.935,802.801L984.092,978.796ZM956.257,797.641C970.36,794.602 984.995,793.002 1000,793.002C1034.04,793.002 1066.17,801.237 1094.52,815.822L1003.41,973.619L956.257,797.641ZM1301,887.274C1283.84,823.23 1241.94,768.625 1184.52,735.473L1059.52,951.979L1301,887.274ZM932.269,785.39C881.634,801.377 838.712,834.804 810.566,878.611L789.115,866.225C820.595,816.906 868.898,779.344 925.909,761.653L932.269,785.39ZM951.592,780.23L945.234,756.501C962.862,752.555 981.19,750.473 1000,750.473C1041.79,750.473 1081.19,760.747 1115.83,778.906L1103.53,800.214C1072.53,784.105 1037.32,775 1000,775C983.384,775 967.186,776.805 951.592,780.23Z"/>
        </g>
        <g id="Light-S" transform="matrix(0.145631,0,0,0.145631,700.105,19.8949)">
            <path d="M800.513,895.9C784.218,927.037 775,962.45 775,1000C775,1016.5 776.78,1032.59 780.158,1048.08L755.93,1054.57L761.107,1073.89L785.29,1067.41C801.254,1118.24 834.786,1161.32 878.756,1189.53L866.34,1211.03L883.66,1221.03L896.054,1199.57C927.153,1215.81 962.512,1225 1000,1225C1016.7,1225 1032.98,1223.18 1048.65,1219.72L1055.05,1243.6L1074.36,1238.42L1067.96,1214.54C1118.76,1198.44 1161.78,1164.78 1189.88,1120.7L1211.51,1133.19L1221.51,1115.87L1199.87,1103.37C1215.92,1072.41 1225,1037.26 1225,1000C1225,983.183 1223.15,966.794 1219.64,951.026L1243.72,944.576C1247.83,962.55 1250,981.26 1250,1000.47C1250,1138.45 1137.98,1250.47 1000,1250.47C862.021,1250.47 750,1138.45 750,1000.47C750,958.225 760.502,918.411 779.037,883.501L800.513,895.9ZM1043.98,1202.31C1029.81,1205.38 1015.09,1207 1000,1207C965.79,1207 933.507,1198.68 905.064,1183.96L996.589,1025.43L1043.98,1202.31ZM1174.27,1111.69C1148.56,1151.7 1109.45,1182.3 1063.3,1197.12L1015.91,1020.26L1174.27,1111.69ZM887.767,1173.92C847.864,1148.1 817.392,1108.93 802.699,1062.75L979.269,1015.44L887.767,1173.92ZM1202.24,955.691C1205.36,969.968 1207,984.793 1207,1000C1207,1033.98 1198.79,1066.06 1184.26,1094.36L1025.91,1002.94L1202.24,955.691ZM974.092,996.116L797.571,1043.41C794.577,1029.41 793.002,1014.89 793.002,1000C793.002,965.728 801.349,933.39 816.119,904.91L974.092,996.116ZM984.092,978.796L826.175,887.622C851.934,847.881 890.948,817.514 936.935,802.801L984.092,978.796ZM956.257,797.641C970.36,794.602 984.995,793.002 1000,793.002C1034.04,793.002 1066.17,801.237 1094.52,815.822L1003.41,973.619L956.257,797.641ZM1301,887.274C1283.84,823.23 1241.94,768.625 1184.52,735.473L1059.52,951.979L1301,887.274ZM932.269,785.39C881.634,801.377 838.712,834.804 810.566,878.611L789.115,866.225C820.595,816.906 868.898,779.344 925.909,761.653L932.269,785.39ZM951.592,780.23L945.234,756.501C962.862,752.555 981.19,750.473 1000,750.473C1041.79,750.473 1081.19,760.747 1115.83,778.906L1103.53,800.214C1072.53,784.105 1037.32,775 1000,775C983.384,775 967.186,776.805 951.592,780.23Z"/>
        </g>
        <g id="Regular-L" transform="matrix(0.246602,0,0,0.246602,774.641,190.498)">
            <path d="M800.513,895.9C784.218,927.037 775,962.45 775,1000C775,1016.5 776.78,1032.59 780.158,1048.08L755.93,1054.57L761.107,1073.89L785.29,1067.41C801.254,1118.24 834.786,1161.32 878.756,1189.53L866.34,1211.03L883.66,1221.03L896.054,1199.57C927.153,1215.81 962.512,1225 1000,1225C1016.7,1225 1032.98,1223.18 1048.65,1219.72L1055.05,1243.6L1074.36,1238.42L1067.96,1214.54C1118.76,1198.44 1161.78,1164.78 1189.88,1120.7L1211.51,1133.19L1221.51,1115.87L1199.87,1103.37C1215.92,1072.41 1225,1037.26 1225,1000C1225,983.183 1223.15,966.794 1219.64,951.026L1243.72,944.576C1247.83,962.55 1250,981.26 1250,1000.47C1250,1138.45 1137.98,1250.47 1000,1250.47C862.021,1250.47 750,1138.45 750,1000.47C750,958.225 760.502,918.411 779.037,883.501L800.513,895.9ZM1043.98,1202.31C1029.81,1205.38 1015.09,1207 1000,1207C965.79,1207 933.507,1198.68 905.064,1183.96L996.589,1025.43L1043.98,1202.31ZM1174.27,1111.69C1148.56,1151.7 1109.45,1182.3 1063.3,1197.12L1015.91,1020.26L1174.27,1111.69ZM887.767,1173.92C847.864,1148.1 817.392,1108.93 802.699,1062.75L979.269,1015.44L887.767,1173.92ZM1202.24,955.691C1205.36,969.968 1207,984.793 1207,1000C1207,1033.98 1198.79,1066.06 1184.26,1094.36L1025.91,1002.94L1202.24,955.691ZM974.092,996.116L797.571,1043.41C794.577,1029.41 793.002,1014.89 793.002,1000C793.002,965.728 801.349,933.39 816.119,904.91L974.092,996.116ZM984.092,978.796L826.175,887.622C851.934,847.881 890.948,817.514 936.935,802.801L984.092,978.796ZM956.257,797.641C970.36,794.602 984.995,793.002 1000,793.002C1034.04,793.002 1066.17,801.237 1094.52,815.822L1003.41,973.619L956.257,797.641ZM1301,887.274C1283.84,823.23 1241.94,768.625 1184.52,735.473L1059.52,951.979L1301,887.274ZM932.269,785.39C881.634,801.377 838.712,834.804 810.566,878.611L789.115,866.225C820.595,816.906 868.898,779.344 925.909,761.653L932.269,785.39ZM951.592,780.23L945.234,756.501C962.862,752.555 981.19,750.473 1000,750.473C1041.79,750.473 1081.19,760.747 1115.83,778.906L1103.53,800.214C1072.53,784.105 1037.32,775 1000,775C983.384,775 967.186,776.805 951.592,780.23Z"/>
        </g>
        <g id="Regular-M" transform="matrix(0.181488,0,0,0.181488,823.402,112.244)">
            <path d="M800.513,895.9C784.218,927.037 775,962.45 775,1000C775,1016.5 776.78,1032.59 780.158,1048.08L755.93,1054.57L761.107,1073.89L785.29,1067.41C801.254,1118.24 834.786,1161.32 878.756,1189.53L866.34,1211.03L883.66,1221.03L896.054,1199.57C927.153,1215.81 962.512,1225 1000,1225C1016.7,1225 1032.98,1223.18 1048.65,1219.72L1055.05,1243.6L1074.36,1238.42L1067.96,1214.54C1118.76,1198.44 1161.78,1164.78 1189.88,1120.7L1211.51,1133.19L1221.51,1115.87L1199.87,1103.37C1215.92,1072.41 1225,1037.26 1225,1000C1225,983.183 1223.15,966.794 1219.64,951.026L1243.72,944.576C1247.83,962.55 1250,981.26 1250,1000.47C1250,1138.45 1137.98,1250.47 1000,1250.47C862.021,1250.47 750,1138.45 750,1000.47C750,958.225 760.502,918.411 779.037,883.501L800.513,895.9ZM1043.98,1202.31C1029.81,1205.38 1015.09,1207 1000,1207C965.79,1207 933.507,1198.68 905.064,1183.96L996.589,1025.43L1043.98,1202.31ZM1174.27,1111.69C1148.56,1151.7 1109.45,1182.3 1063.3,1197.12L1015.91,1020.26L1174.27,1111.69ZM887.767,1173.92C847.864,1148.1 817.392,1108.93 802.699,1062.75L979.269,1015.44L887.767,1173.92ZM1202.24,955.691C1205.36,969.968 1207,984.793 1207,1000C1207,1033.98 1198.79,1066.06 1184.26,1094.36L1025.91,1002.94L1202.24,955.691ZM974.092,996.116L797.571,1043.41C794.577,1029.41 793.002,1014.89 793.002,1000C793.002,965.728 801.349,933.39 816.119,904.91L974.092,996.116ZM984.092,978.796L826.175,887.622C851.934,847.881 890.948,817.514 936.935,802.801L984.092,978.796ZM956.257,797.641C970.36,794.602 984.995,793.002 1000,793.002C1034.04,793.002 1066.17,801.237 1094.52,815.822L1003.41,973.619L956.257,797.641ZM1301,887.274C1283.84,823.23 1241.94,768.625 1184.52,735.473L1059.52,951.979L1301,887.274ZM932.269,785.39C881.634,801.377 838.712,834.804 810.566,878.611L789.115,866.225C820.595,816.906 868.898,779.344 925.909,761.653L932.269,785.39ZM951.592,780.23L945.234,756.501C962.862,752.555 981.19,750.473 1000,750.473C1041.79,750.473 1081.19,760.747 1115.83,778.906L1103.53,800.214C1072.53,784.105 1037.32,775 1000,775C983.384,775 967.186,776.805 951.592,780.23Z"/>
        </g>
        <g id="Regular-S" transform="matrix(0.153398,0,0,0.153398,856.383,18.8829)">
            <path d="M800.513,895.9C784.218,927.037 775,962.45 775,1000C775,1016.5 776.78,1032.59 780.158,1048.08L755.93,1054.57L761.107,1073.89L785.29,1067.41C801.254,1118.24 834.786,1161.32 878.756,1189.53L866.34,1211.03L883.66,1221.03L896.054,1199.57C927.153,1215.81 962.512,1225 1000,1225C1016.7,1225 1032.98,1223.18 1048.65,1219.72L1055.05,1243.6L1074.36,1238.42L1067.96,1214.54C1118.76,1198.44 1161.78,1164.78 1189.88,1120.7L1211.51,1133.19L1221.51,1115.87L1199.87,1103.37C1215.92,1072.41 1225,1037.26 1225,1000C1225,983.183 1223.15,966.794 1219.64,951.026L1243.72,944.576C1247.83,962.55 1250,981.26 1250,1000.47C1250,1138.45 1137.98,1250.47 1000,1250.47C862.021,1250.47 750,1138.45 750,1000.47C750,958.225 760.502,918.411 779.037,883.501L800.513,895.9ZM1043.98,1202.31C1029.81,1205.38 1015.09,1207 1000,1207C965.79,1207 933.507,1198.68 905.064,1183.96L996.589,1025.43L1043.98,1202.31ZM1174.27,1111.69C1148.56,1151.7 1109.45,1182.3 1063.3,1197.12L1015.91,1020.26L1174.27,1111.69ZM887.767,1173.92C847.864,1148.1 817.392,1108.93 802.699,1062.75L979.269,1015.44L887.767,1173.92ZM1202.24,955.691C1205.36,969.968 1207,984.793 1207,1000C1207,1033.98 1198.79,1066.06 1184.26,1094.36L1025.91,1002.94L1202.24,955.691ZM974.092,996.116L797.571,1043.41C794.577,1029.41 793.002,1014.89 793.002,1000C793.002,965.728 801.349,933.39 816.119,904.91L974.092,996.116ZM984.092,978.796L826.175,887.622C851.934,847.881 890.948,817.514 936.935,802.801L984.092,978.796ZM956.257,797.641C970.36,794.602 984.995,793.002 1000,793.002C1034.04,793.002 1066.17,801.237 1094.52,815.822L1003.41,973.619L956.257,797.641ZM1301,887.274C1283.84,823.23 1241.94,768.625 1184.52,735.473L1059.52,951.979L1301,887.274ZM932.269,785.39C881.634,801.377 838.712,834.804 810.566,878.611L789.115,866.225C820.595,816.906 868.898,779.344 925.909,761.653L932.269,785.39ZM951.592,780.23L945.234,756.501C962.862,752.555 981.19,750.473 1000,750.473C1041.79,750.473 1081.19,760.747 1115.83,778.906L1103.53,800.214C1072.53,784.105 1037.32,775 1000,775C983.384,775 967.186,776.805 951.592,780.23Z"/>
        </g>
    </g>
</svg>
